<svg width="37" height="40" viewBox="0 0 37 40" fill="none" xmlns="http://www.w3.org/2000/svg">
<path d="M29 0C33.4183 0 37 3.58172 37 8V32C37 36.4183 33.4183 40 29 40H8C3.58172 40 6.44277e-08 36.4183 0 32V8C0 3.58172 3.58172 1.04692e-07 8 0H29Z" stroke="#E5E7EB"/>
<g clip-path="url(#clip0_3_338)">
<path d="M29 32H8V8H29V32Z" stroke="#E5E7EB"/>
<path d="M8 12.5C8 11.6703 8.67031 11 9.5 11H27.5C28.3297 11 29 11.6703 29 12.5C29 13.3297 28.3297 14 27.5 14H9.5C8.67031 14 8 13.3297 8 12.5ZM8 20C8 19.1703 8.67031 18.5 9.5 18.5H27.5C28.3297 18.5 29 19.1703 29 20C29 20.8297 28.3297 21.5 27.5 21.5H9.5C8.67031 21.5 8 20.8297 8 20ZM29 27.5C29 28.3297 28.3297 29 27.5 29H9.5C8.67031 29 8 28.3297 8 27.5C8 26.6703 8.67031 26 9.5 26H27.5C28.3297 26 29 26.6703 29 27.5Z" fill="black"/>
</g>
<defs>
<clipPath id="clip0_3_338">
<rect width="21" height="24" fill="white" transform="translate(8 8)"/>
</clipPath>
</defs>
</svg>
